<svg viewBox="40 34 128 72" fill="none" xmlns="http://www.w3.org/2000/svg">
  <path d="M46.9962 75.6123C41.9216 79.4182 39.7445 86.0786 41.2873 90.5188C42.83 94.959 46.8157 98.5653 56.511 98.7648C66.2063 98.9644 75.5406 97.1791 75.5406 97.1791C75.5406 97.1791 94.2621 105.451 104.719 103.839C114.014 102.407 126.603 97.1791 126.603 97.1791C126.603 97.1791 133.873 98.5581 142.461 98.7648C152.569 99.0082 161.849 99.0481 164.345 89.2501C166.013 82.7002 163.764 78.1122 158.636 73.7093C155.098 70.6722 146.901 68.6348 146.901 68.6348C146.901 68.6348 147.218 56.2657 140.558 51.5082C132.75 45.9313 119.308 49.2882 119.308 49.2882C119.308 49.2882 116.137 32.7957 98.6932 36.2847C86.324 38.7587 84.1039 51.5082 84.1039 51.5082C84.1039 51.5082 73.7581 49.0597 66.9773 54.3626C60.1966 59.6656 59.3654 68.6348 59.3654 68.6348C59.3654 68.6348 52.0708 71.8064 46.9962 75.6123Z" fill="url(#paint0_linear_227_35)"/>
  <circle cx="94.2526" cy="67.6833" r="3.17158" fill="#141212"/>
  <circle cx="113.282" cy="67.6833" r="3.17158" fill="#141212"/>
  <circle cx="93.9354" cy="66.7318" r="0.951475" fill="white"/>
  <circle cx="112.965" cy="66.7318" r="0.951475" fill="white"/>
  <path d="M98.0586 76.5637C98.0586 76.5637 98.3758 81.3211 104.085 81.3211C109.793 81.3211 109.476 76.5637 109.476 76.5637" stroke="black" stroke-width="4" stroke-linecap="round"/>
  <ellipse cx="87.2752" cy="74.978" rx="5.07453" ry="3.48874" fill="#DFA7B5"/>
  <ellipse cx="120.26" cy="74.978" rx="5.07453" ry="3.48874" fill="#DFA7B5"/>
  <defs>
    <linearGradient id="paint0_linear_227_35" x1="100.917" y1="35.7246" x2="102.499" y2="103.839" gradientUnits="userSpaceOnUse">
      <stop stop-color="white"/>
      <stop offset="0.340878" stop-color="#DEDEDE"/>
      <stop offset="0.5625" stop-color="#D6DCE5"/>
      <stop offset="0.756906" stop-color="#CCDAEC" stop-opacity="0.71"/>
      <stop offset="1" stop-color="#97A4CF"/>
    </linearGradient>
  </defs>
</svg>
